<?xml version="1.0" encoding="UTF-8"?>
<!DOCTYPE svg PUBLIC "-//W3C//DTD SVG 1.1//EN" "http://www.w3.org/Graphics/SVG/1.1/DTD/svg11.dtd">
<svg xmlns="http://www.w3.org/2000/svg" version="1.1" width="256px" height="256px" style="shape-rendering:geometricPrecision; text-rendering:geometricPrecision; image-rendering:optimizeQuality; fill-rule:evenodd; clip-rule:evenodd" xmlns:xlink="http://www.w3.org/1999/xlink">
<g><path style="opacity:0.928" fill="#020402" d="M 158.5,53.5 C 164.509,53.701 170.509,54.0343 176.5,54.5C 178.22,55.3077 179.887,56.3077 181.5,57.5C 182.124,57.9169 182.457,58.5836 182.5,59.5C 181.533,61.7617 180.866,64.095 180.5,66.5C 220.925,84.2928 239.259,115.293 235.5,159.5C 227.038,192.801 206.705,215.634 174.5,228C 131.53,243.254 91.1964,238.254 53.5,213C 16.8041,182.714 8.97074,146.214 30,103.5C 43.0793,83.5822 60.9127,69.9156 83.5,62.5C 82.8894,58.6701 82.2227,54.8368 81.5,51C 82.3076,45.7948 85.3076,44.1281 90.5,46C 97.4529,48.1512 104.12,50.9846 110.5,54.5C 114.293,39.3961 122.626,27.5628 135.5,19C 146.782,16.8003 153.449,21.3003 155.5,32.5C 154.555,39.72 151.055,45.3866 145,49.5C 143.634,51.3703 142.467,53.3703 141.5,55.5C 142,55.8333 142.5,56.1667 143,56.5C 147.975,54.4642 153.141,53.4642 158.5,53.5 Z M 85.5,71.5 C 86.9649,72.4057 87.9649,73.739 88.5,75.5C 83.3728,77.8973 78.3728,80.564 73.5,83.5C 72.1823,85.9122 72.349,88.2456 74,90.5C 76.5429,92.3543 79.3763,93.5209 82.5,94C 88.793,95.0226 95.1263,95.6893 101.5,96C 104.208,100.584 107.042,105.084 110,109.5C 112.921,113.092 116.421,115.925 120.5,118C 122.971,118.706 125.305,118.373 127.5,117C 133.822,112.021 138.155,105.688 140.5,98C 145.133,98.2549 149.799,98.7549 154.5,99.5C 161.386,99.554 167.552,97.554 173,93.5C 173.667,91.8333 173.667,90.1667 173,88.5C 168.905,86.203 165.072,83.5364 161.5,80.5C 165.445,78.3968 169.278,76.0635 173,73.5C 197.483,83.9827 214.483,101.649 224,126.5C 230.664,157.344 221.831,182.844 197.5,203C 160.339,229.102 120.672,233.435 78.5,216C 54.1084,204.613 37.9418,186.113 30,160.5C 25.4106,126.849 37.2439,100.683 65.5,82C 72.1017,78.2009 78.7684,74.7009 85.5,71.5 Z"/></g>
<g><path style="opacity:1" fill="#49a94d" d="M 138.5,27.5 C 144.157,27.3244 146.324,29.991 145,35.5C 131.51,47.1459 125.844,61.8125 128,79.5C 130.667,82.1667 133.333,82.1667 136,79.5C 136.333,76.8333 136.667,74.1667 137,71.5C 146.467,63.402 157.3,60.7354 169.5,63.5C 167.874,64.9905 166.208,66.4905 164.5,68C 158.189,70.2788 152.022,72.7788 146,75.5C 145.333,76.8333 145.333,78.1667 146,79.5C 149.201,83.0364 152.701,86.2031 156.5,89C 148.99,89.6133 141.657,88.9466 134.5,87C 131.956,91.953 129.789,97.1196 128,102.5C 126.71,104.792 125.043,106.792 123,108.5C 116.483,102.485 111.316,95.4849 107.5,87.5C 102.186,86.8776 96.8527,86.211 91.5,85.5C 93.8333,84 96.1667,82.5 98.5,81C 99.8045,80.196 100.471,79.0293 100.5,77.5C 97.0207,71.5375 94.354,65.2042 92.5,58.5C 98.5967,58.9359 104.097,61.2692 109,65.5C 109.333,70.1667 109.667,74.8333 110,79.5C 112.667,82.1667 115.333,82.1667 118,79.5C 116.718,58.8263 123.551,41.4929 138.5,27.5 Z"/></g>
<g><path style="opacity:0.847" fill="#2f6d33" d="M 158.5,53.5 C 164.557,52.2617 170.557,52.5951 176.5,54.5C 170.509,54.0343 164.509,53.701 158.5,53.5 Z"/></g>
<g><path style="opacity:0.835" fill="#285f2b" d="M 176.5,54.5 C 179.285,53.9162 180.952,54.9162 181.5,57.5C 179.887,56.3077 178.22,55.3077 176.5,54.5 Z"/></g>
<g><path style="opacity:0.873" fill="#000000" d="M 38.5,140.5 C 41.1569,140.162 43.4902,140.829 45.5,142.5C 46.74,163.562 55.9066,180.229 73,192.5C 73.1149,199.861 69.9482,201.695 63.5,198C 49.2828,186.782 40.4495,172.282 37,154.5C 35.9656,149.543 36.4656,144.876 38.5,140.5 Z"/></g>
</svg>
